# xmcd CD database file
#
# Track frame offsets:
#	150
#	9312
#	24875
#	40077
#	50130
#	61237
#	74782
#	87095
#	101027
#	113140
#	123382
#	134947
#	149557
#	165105
#	178285
#	189385
#	205822
#	217027
#
# Disc length: 3016 seconds
#
# Revision: 1
# Processed by: cddbd v1.5.1PL2 Copyright (c) Steve Scherf et al.
# Submitted via: Feurio! 1.68 - http://www.feurio.com
#
DISCID=0d0bc612
DTITLE=Various Artist - Goodbye My Little Cherokee
DYEAR=1989
DGENRE=Folk
TTITLE0=Sandy Posey - Born A Woman
TTITLE1=Don Fardon - ON Indian Reservation
TTITLE2=Jeannie 0. Riley - Harper Valley P.T.A.
TTITLE3=Dave Dudley - Cowboy Boots
TTITLE4=Donna Fargo - All That´s  Keeping Me Alive
TTITLE5=Roy Acuff - TennesseeWalz
TTITLE6=Tex Ritter - Goodbye My Little Cherokee
TTITLE7=Freddy Fender - Baby I Want To Love You
TTITLE8=Conway Twitty - You Made Me What I Am
TTITLE9=Johnny Paycheck - Who Needs Your Love ?
TTITLE10=Rex Allen - Dream On Texas Ladies
TTITLE11=Billy Joe Spears - I´Ll Never Be Free
TTITLE12=Kenny Rogers - For The Good Times
TTITLE13=Freddy Fender - Since I Me You Baby
TTITLE14=Ferlin Husky - Gone
TTITLE15=Stu Stevens - Can´t Touch Her At All
TTITLE16=Roger Miller - King Of Ihe Road
TTITLE17=Sammy's Saloon - PurpIe Skies
EXTD=
EXTT0=
EXTT1=
EXTT2=
EXTT3=
EXTT4=
EXTT5=
EXTT6=
EXTT7=
EXTT8=
EXTT9=
EXTT10=
EXTT11=
EXTT12=
EXTT13=
EXTT14=
EXTT15=
EXTT16=
EXTT17=
PLAYORDER=
